<svg xmlns="http://www.w3.org/2000/svg" xmlns:xlink="http://www.w3.org/1999/xlink" version="1.1" x="0px" y="0px" viewBox="0 0 100 125"><path d="M936,1002 c103,-159,155,-322,155,-481 c0,-348,-248,-521,-497,-521 c-251,0,-503,175,-503,498 c0,296,212,449,177,664 c75,-35,130,-116,139,-213 c95,138,136,341,87,539 c148,-77,373,-344,390,-644 c39,35,50,94,52,158 Z M936,1002 " fill="#000000" stroke="none" stroke-dasharray="none" stroke-linecap="inherit" stroke-linejoin="inherit" stroke-width="1" transform="matrix(0.05,0.0,0.0,-0.05,20.0,80.0)"/></svg>